HIERARCHY
ROOT Hips
{
    OFFSET 0.000000 0.000000 0.000000
    CHANNELS 6 Xposition Yposition Zposition Zrotation Xrotation Yrotation
    JOINT Spine
    {
        OFFSET -0.000000 7.790525 0.000000
        CHANNELS 3 Zrotation Xrotation Yrotation
        JOINT Spine1
        {
            OFFSET -0.000000 20.430923 0.000000
            CHANNELS 3 Zrotation Xrotation Yrotation
            JOINT Neck
            {
                OFFSET -0.000000 22.331051 0.000000
                CHANNELS 3 Zrotation Xrotation Yrotation
                JOINT Head
                {
                    OFFSET -0.000000 14.725992 1.900128
                    CHANNELS 3 Zrotation Xrotation Yrotation
                    End Site
                    {
                        OFFSET -0.000000 19.001280 0.000000
                    }
                }
            }
            JOINT LeftShoulder
            {
                OFFSET 3.812537 19.294388 -0.177115
                CHANNELS 3 Zrotation Xrotation Yrotation
                JOINT LeftArm
                {
                    OFFSET 9.162892 0.000000 0.000000
                    CHANNELS 3 Zrotation Xrotation Yrotation
                    JOINT LeftForeArm
                    {
                        OFFSET 30.063545 0.000000 0.000000
                        CHANNELS 3 Zrotation Xrotation Yrotation
                        JOINT LeftHand
                        {
                            OFFSET 28.325521 0.000000 0.000000
                            CHANNELS 3 Zrotation Xrotation Yrotation
                            End Site
                            {
                                OFFSET 14.250961 0.000000 0.000000
                            }
                        }
                    }
                }
            }
            JOINT RightShoulder
            {
                OFFSET -3.786349 19.294388 -0.177115
                CHANNELS 3 Zrotation Xrotation Yrotation
                JOINT RightArm
                {
                    OFFSET -9.162892 0.000000 0.000000
                    CHANNELS 3 Zrotation Xrotation Yrotation
                    JOINT RightForeArm
                    {
                        OFFSET -30.063545 0.000000 0.000000
                        CHANNELS 3 Zrotation Xrotation Yrotation
                        JOINT RightHand
                        {
                            OFFSET -28.325521 0.000000 0.000000
                            CHANNELS 3 Zrotation Xrotation Yrotation
                            End Site
                            {
                                OFFSET -14.250961 0.000000 0.000000
                            }
                        }
                    }
                }
            }
        }
    }
    JOINT LeftUpLeg
    {
        OFFSET 9.500640 0.000000 0.000000
        CHANNELS 3 Zrotation Xrotation Yrotation
        JOINT LeftLeg
        {
            OFFSET -0.000000 -41.640518 0.000000
            CHANNELS 3 Zrotation Xrotation Yrotation
            JOINT LeftFoot
            {
                OFFSET -0.000000 -37.182968 0.000000
                CHANNELS 3 Zrotation Xrotation Yrotation
                JOINT LeftToeBase
                {
                    OFFSET -0.000000 -6.175416 14.250961
                    CHANNELS 3 Zrotation Xrotation Yrotation
                    End Site
                    {
                        OFFSET -0.000000 0.000000 3.800256
                    }
                }
            }
        }
    }
    JOINT RightUpLeg
    {
        OFFSET -9.500640 0.000000 0.000000
        CHANNELS 3 Zrotation Xrotation Yrotation
        JOINT RightLeg
        {
            OFFSET -0.000000 -41.640518 0.000000
            CHANNELS 3 Zrotation Xrotation Yrotation
            JOINT RightFoot
            {
                OFFSET -0.000000 -37.182968 0.000000
                CHANNELS 3 Zrotation Xrotation Yrotation
                JOINT RightToeBase
                {
                    OFFSET -0.000000 -6.175416 14.250961
                    CHANNELS 3 Zrotation Xrotation Yrotation
                    End Site
                    {
                        OFFSET -0.000000 0.000000 3.800256
                    }
                }
            }
        }
    }
}
MOTION
Frames:    11
Frame Time:    0.010000
33.384586    89.442039    76.970894    0.474437    -0.299432    5.522966    0.897038    -9.801353    2.995958    1.940745    4.129742    0.888105    -4.645366    23.301447    28.513617    -18.294554    -12.704922    27.937307    4.215773    -2.865179    1.602896    -12.711855    8.065944    -20.049141    65.900398    -68.240326    46.198841    -9.957897    -77.431244    -7.043192    -3.388067    9.374403    -4.480915    -78.313934    85.984627    151.930634    -19.904062    -29.054316    6.736671    21.620874    -26.513676    8.824831    -0.408133    2.843203    0.585909    -1.450024    3.425407    0.228988    0.108373    -6.943385    13.330481    0.000000    0.000000    0.000000    -3.484962    3.647066    -0.816911    2.506538    4.277092    -1.202122    -1.256946    -7.870346    -7.251832    0.000000    0.000000    0.000000    
33.383854    89.442848    76.970627    0.464839    -0.307249    5.535439    0.835861    -9.834854    3.007501    2.033032    4.195950    0.889222    -4.584682    23.264706    28.454086    -18.332863    -12.644117    27.908747    4.167164    -2.735542    1.660920    -13.005730    7.767674    -20.057100    65.147141    -68.147148    44.984890    -12.584395    -76.958206    -9.261467    -3.394524    9.316408    -4.496998    -80.099991    85.864304    153.704163    -19.978045    -29.133076    6.607611    21.568924    -26.608009    8.862127    -0.357642    2.880046    0.565223    -1.451284    3.413769    0.261281    1.754073    -6.712111    13.327737    0.000000    0.000000    0.000000    -3.473798    3.657286    -0.816586    2.518621    4.274755    -1.250704    -1.717932    -7.910185    -7.178625    0.000000    0.000000    0.000000    
33.385788    89.441681    76.968040    0.464323    -0.302001    5.553935    0.828269    -9.833926    3.002173    2.027009    4.193362    0.887935    -4.553505    23.277267    28.422085    -18.355980    -12.641032    27.886787    4.102188    -2.665602    1.693022    -13.620717    5.676228    -19.604549    60.034840    -68.470543    39.432121    -12.346897    -75.508675    -9.392467    -3.347606    9.319134    -4.503351    -82.071388    85.703995    155.685715    -20.254354    -29.241590    6.379119    21.714651    -26.721266    8.915752    -0.360343    2.868741    0.559946    -1.435994    3.412189    0.230762    1.396338    -6.974304    12.886397    0.000000    0.000000    0.000000    -3.474253    3.653886    -0.826397    2.511873    4.269176    -1.217050    -1.749876    -7.892788    -7.174597    0.000000    0.000000    0.000000    
33.385921    89.440727    76.966675    0.458501    -0.302313    5.567402    0.824283    -9.829050    3.000464    2.029355    4.193601    0.887473    -4.525010    23.261398    28.393715    -18.357189    -12.599608    27.874977    4.011485    -2.247519    1.533147    -13.737308    5.765200    -19.504725    60.406902    -68.426689    39.234051    -11.659901    -75.518532    -8.892515    -3.366185    9.355554    -4.530401    -81.249619    85.698029    154.893631    -20.224949    -29.217649    6.387817    21.698256    -26.702946    8.887426    -0.353813    2.868443    0.539209    -1.447952    3.411016    0.289536    1.384741    -7.001101    12.883134    0.000000    0.000000    0.000000    -3.466673    3.655269    -0.834784    2.529740    4.265571    -1.302493    -1.790934    -7.900742    -7.136209    0.000000    0.000000    0.000000    
33.385921    89.440727    76.966675    0.458501    -0.302313    5.567402    0.824283    -9.829050    3.000464    2.029355    4.193601    0.887473    -4.525010    23.261398    28.393715    -18.357189    -12.599608    27.874977    4.011485    -2.247519    1.533147    -13.737308    5.765200    -19.504725    60.406902    -68.426689    39.234051    -11.659901    -75.518532    -8.892515    -3.366185    9.355554    -4.530401    -81.249619    85.698029    154.893631    -20.224949    -29.217649    6.387817    21.698256    -26.702946    8.887426    -0.353813    2.868443    0.539209    -1.447952    3.411016    0.289536    1.384741    -7.001101    12.883134    0.000000    0.000000    0.000000    -3.466673    3.655269    -0.834784    2.529740    4.265571    -1.302493    -1.790934    -7.900742    -7.136209    0.000000    0.000000    0.000000    
33.385921    89.440727    76.966675    0.458501    -0.302313    5.567402    0.824283    -9.829050    3.000464    2.029355    4.193601    0.887473    -4.525010    23.261398    28.393715    -18.357189    -12.599608    27.874977    4.011485    -2.247519    1.533147    -13.737308    5.765200    -19.504725    60.406902    -68.426689    39.234051    -11.659901    -75.518532    -8.892515    -3.366185    9.355554    -4.530401    -81.249619    85.698029    154.893631    -20.224949    -29.217649    6.387817    21.698256    -26.702946    8.887426    -0.353813    2.868443    0.539209    -1.447952    3.411016    0.289536    1.384741    -7.001101    12.883134    0.000000    0.000000    0.000000    -3.466673    3.655269    -0.834784    2.529740    4.265571    -1.302493    -1.790934    -7.900742    -7.136209    0.000000    0.000000    0.000000    
33.385921    89.440727    76.966675    0.458501    -0.302313    5.567402    0.824283    -9.829050    3.000464    2.029355    4.193601    0.887473    -4.525010    23.261398    28.393715    -18.357189    -12.599608    27.874977    4.011485    -2.247519    1.533147    -13.737308    5.765200    -19.504725    60.406902    -68.426689    39.234051    -11.659901    -75.518532    -8.892515    -3.366185    9.355554    -4.530401    -81.249619    85.698029    154.893631    -20.224949    -29.217649    6.387817    21.698256    -26.702946    8.887426    -0.353813    2.868443    0.539209    -1.447952    3.411016    0.289536    1.384741    -7.001101    12.883134    0.000000    0.000000    0.000000    -3.466673    3.655269    -0.834784    2.529740    4.265571    -1.302493    -1.790934    -7.900742    -7.136209    0.000000    0.000000    0.000000    
33.385921    89.440727    76.966675    0.458501    -0.302313    5.567402    0.824283    -9.829050    3.000464    2.029355    4.193601    0.887473    -4.525010    23.261398    28.393715    -18.357189    -12.599608    27.874977    4.011485    -2.247519    1.533147    -13.737308    5.765200    -19.504725    60.406902    -68.426689    39.234051    -11.659901    -75.518532    -8.892515    -3.366185    9.355554    -4.530401    -81.249619    85.698029    154.893631    -20.224949    -29.217649    6.387817    21.698256    -26.702946    8.887426    -0.353813    2.868443    0.539209    -1.447952    3.411016    0.289536    1.384741    -7.001101    12.883134    0.000000    0.000000    0.000000    -3.466673    3.655269    -0.834784    2.529740    4.265571    -1.302493    -1.790934    -7.900742    -7.136209    0.000000    0.000000    0.000000    
33.385921    89.440727    76.966675    0.458501    -0.302313    5.567402    0.824283    -9.829050    3.000464    2.029355    4.193601    0.887473    -4.525010    23.261398    28.393715    -18.357189    -12.599608    27.874977    4.011485    -2.247519    1.533147    -13.737308    5.765200    -19.504725    60.406902    -68.426689    39.234051    -11.659901    -75.518532    -8.892515    -3.366185    9.355554    -4.530401    -81.249619    85.698029    154.893631    -20.224949    -29.217649    6.387817    21.698256    -26.702946    8.887426    -0.353813    2.868443    0.539209    -1.447952    3.411016    0.289536    1.384741    -7.001101    12.883134    0.000000    0.000000    0.000000    -3.466673    3.655269    -0.834784    2.529740    4.265571    -1.302493    -1.790934    -7.900742    -7.136209    0.000000    0.000000    0.000000    
33.385921    89.440727    76.966675    0.458501    -0.302313    5.567402    0.824283    -9.829050    3.000464    2.029355    4.193601    0.887473    -4.525010    23.261398    28.393715    -18.357189    -12.599608    27.874977    4.011485    -2.247519    1.533147    -13.737308    5.765200    -19.504725    60.406902    -68.426689    39.234051    -11.659901    -75.518532    -8.892515    -3.366185    9.355554    -4.530401    -81.249619    85.698029    154.893631    -20.224949    -29.217649    6.387817    21.698256    -26.702946    8.887426    -0.353813    2.868443    0.539209    -1.447952    3.411016    0.289536    1.384741    -7.001101    12.883134    0.000000    0.000000    0.000000    -3.466673    3.655269    -0.834784    2.529740    4.265571    -1.302493    -1.790934    -7.900742    -7.136209    0.000000    0.000000    0.000000    
33.385921    89.440727    76.966675    0.458501    -0.302313    5.567402    0.824283    -9.829050    3.000464    2.029355    4.193601    0.887473    -4.525010    23.261398    28.393715    -18.357189    -12.599608    27.874977    4.011485    -2.247519    1.533147    -13.737308    5.765200    -19.504725    60.406902    -68.426689    39.234051    -11.659901    -75.518532    -8.892515    -3.366185    9.355554    -4.530401    -81.249619    85.698029    154.893631    -20.224949    -29.217649    6.387817    21.698256    -26.702946    8.887426    -0.353813    2.868443    0.539209    -1.447952    3.411016    0.289536    1.384741    -7.001101    12.883134    0.000000    0.000000    0.000000    -3.466673    3.655269    -0.834784    2.529740    4.265571    -1.302493    -1.790934    -7.900742    -7.136209    0.000000    0.000000    0.000000    
